<svg width="279" height="104" viewBox="0 0 279 104" fill="none" xmlns="http://www.w3.org/2000/svg">
<path d="M85.6797 86.6149C83.7297 86.6149 81.9897 86.2099 80.4597 85.3999C78.9297 84.5599 77.7297 83.3749 76.8597 81.8449C75.9897 80.3149 75.5547 78.5299 75.5547 76.4899V51.9649H77.0397V76.4449C77.0397 78.2449 77.4147 79.8199 78.1647 81.1699C78.9147 82.4899 79.9347 83.5099 81.2247 84.2299C82.5447 84.9499 84.0147 85.3099 85.6347 85.3099C87.2547 85.3099 88.7097 84.9649 89.9997 84.2749C91.3197 83.5549 92.3397 82.5349 93.0597 81.2149C93.8097 79.8649 94.1847 78.2749 94.1847 76.4449V51.9649H95.6697V76.3999C95.6697 78.4699 95.2497 80.2849 94.4097 81.8449C93.5697 83.3749 92.3847 84.5599 90.8547 85.3999C89.3547 86.2099 87.6297 86.6149 85.6797 86.6149Z" fill="#284D28"/>
<path d="M102.081 65.4649H103.521V69.9649C104.181 68.4649 105.306 67.2649 106.896 66.3649C108.486 65.4349 110.241 64.9699 112.161 64.9699C114.651 64.9699 116.616 65.7649 118.056 67.3549C119.526 68.9149 120.261 71.1049 120.261 73.9249V85.7149H118.821V73.9249C118.821 71.4949 118.221 69.6049 117.021 68.2549C115.851 66.9049 114.201 66.2299 112.071 66.2299C110.511 66.2299 109.071 66.5899 107.751 67.3099C106.461 67.9999 105.426 68.9599 104.646 70.1899C103.896 71.4199 103.521 72.8149 103.521 74.3749V85.7149H102.081V65.4649Z" fill="#284D28"/>
<path d="M127.698 60.8299C127.278 60.8299 126.903 60.6799 126.573 60.3799C126.273 60.0799 126.123 59.7049 126.123 59.2549C126.123 58.8349 126.273 58.4749 126.573 58.1749C126.903 57.8749 127.278 57.7249 127.698 57.7249C128.118 57.7249 128.478 57.8749 128.778 58.1749C129.108 58.4749 129.273 58.8349 129.273 59.2549C129.273 59.7049 129.108 60.0799 128.778 60.3799C128.478 60.6799 128.118 60.8299 127.698 60.8299ZM126.978 65.4649H128.418V85.7149H126.978V65.4649Z" fill="#284D28"/>
<path d="M151.688 86.6149C148.538 86.6149 145.643 85.8499 143.003 84.3199C140.363 82.7599 138.263 80.6299 136.703 77.9299C135.173 75.1999 134.408 72.1399 134.408 68.7499C134.408 65.4799 135.203 62.4949 136.793 59.7949C138.413 57.0949 140.558 54.9649 143.228 53.4049C145.928 51.8449 148.793 51.0649 151.823 51.0649C153.923 51.0649 155.588 51.2599 156.818 51.6499C158.048 52.0099 159.473 52.6549 161.093 53.5849V55.2499C159.563 54.1999 158.138 53.4649 156.818 53.0449C155.528 52.5949 153.908 52.3699 151.958 52.3699C148.988 52.3699 146.273 53.1349 143.813 54.6649C141.383 56.1649 139.448 58.1899 138.008 60.7399C136.598 63.2599 135.893 65.9749 135.893 68.8849C135.893 71.8249 136.613 74.5549 138.053 77.0749C139.493 79.5949 141.398 81.6049 143.768 83.1049C146.168 84.5749 148.748 85.3099 151.508 85.3099C153.488 85.3099 155.213 85.0849 156.683 84.6349C158.153 84.1549 159.623 83.4199 161.093 82.4299V84.0949C159.653 84.9649 158.168 85.5949 156.638 85.9849C155.138 86.4049 153.488 86.6149 151.688 86.6149Z" fill="#284D28"/>
<path d="M183.598 86.6149C180.448 86.6149 177.523 85.7899 174.823 84.1399C172.123 82.4899 169.978 80.2999 168.388 77.5699C166.828 74.8099 166.048 71.8549 166.048 68.7049C166.048 65.5849 166.843 62.6749 168.433 59.9749C170.023 57.2449 172.168 55.0849 174.868 53.4949C177.568 51.8749 180.493 51.0649 183.643 51.0649C186.823 51.0649 189.748 51.8599 192.418 53.4499C195.088 55.0399 197.203 57.1999 198.763 59.9299C200.353 62.6299 201.148 65.5549 201.148 68.7049C201.148 71.9449 200.353 74.9449 198.763 77.7049C197.203 80.4349 195.073 82.6099 192.373 84.2299C189.703 85.8199 186.778 86.6149 183.598 86.6149ZM183.598 85.3099C186.478 85.3099 189.148 84.5749 191.608 83.1049C194.068 81.6049 196.018 79.5949 197.458 77.0749C198.928 74.5249 199.663 71.7649 199.663 68.7949C199.663 65.8549 198.943 63.1249 197.503 60.6049C196.063 58.0849 194.113 56.0899 191.653 54.6199C189.193 53.1199 186.523 52.3699 183.643 52.3699C180.733 52.3699 178.048 53.1199 175.588 54.6199C173.128 56.0899 171.163 58.0849 169.693 60.6049C168.253 63.1249 167.533 65.8549 167.533 68.7949C167.533 71.7649 168.253 74.5249 169.693 77.0749C171.163 79.5949 173.128 81.6049 175.588 83.1049C178.048 84.5749 180.718 85.3099 183.598 85.3099Z" fill="#284D28"/>
<path d="M220.589 75.7699C223.229 74.1199 225.164 72.3799 226.394 70.5499C227.654 68.6899 228.284 66.5449 228.284 64.1149C228.284 62.0749 227.834 60.1999 226.934 58.4899C226.034 56.7799 224.759 55.4149 223.109 54.3949C221.489 53.3749 219.629 52.8649 217.529 52.8649C215.399 52.8649 213.449 53.4049 211.679 54.4849C209.939 55.5649 208.559 57.0199 207.539 58.8499C206.519 60.6799 206.009 62.7049 206.009 64.9249H204.524C204.524 62.4349 205.094 60.1699 206.234 58.1299C207.374 56.0899 208.934 54.4849 210.914 53.3149C212.894 52.1449 215.099 51.5599 217.529 51.5599C219.899 51.5599 222.014 52.1299 223.874 53.2699C225.734 54.4099 227.174 55.9399 228.194 57.8599C229.244 59.7799 229.769 61.8799 229.769 64.1599C229.769 69.0499 227.114 73.1899 221.804 76.5799L209.564 84.4099H229.634V85.7149H204.884L220.589 75.7699Z" fill="#284D28"/>
<path d="M244.821 86.4349C242.781 86.4349 240.936 85.9399 239.286 84.9499C237.636 83.9299 236.346 82.5949 235.416 80.9449C234.486 79.2649 234.021 77.4499 234.021 75.4999C234.021 73.5799 234.486 71.7949 235.416 70.1449C236.376 68.4949 237.666 67.1899 239.286 66.2299C240.936 65.2399 242.766 64.7449 244.776 64.7449C246.756 64.7449 248.556 65.2399 250.176 66.2299C251.826 67.1899 253.116 68.4949 254.046 70.1449C254.976 71.7949 255.441 73.5799 255.441 75.4999C255.441 77.5099 254.991 79.3549 254.091 81.0349C253.191 82.6849 251.931 84.0049 250.311 84.9949C248.721 85.9549 246.891 86.4349 244.821 86.4349ZM244.821 85.1749C246.531 85.1749 248.091 84.7399 249.501 83.8699C250.911 82.9999 252.006 81.8449 252.786 80.4049C253.596 78.9349 254.001 77.3299 254.001 75.5899C254.001 73.8799 253.596 72.2899 252.786 70.8199C251.976 69.3499 250.866 68.1799 249.456 67.3099C248.046 66.4399 246.486 66.0049 244.776 66.0049C243.066 66.0049 241.491 66.4549 240.051 67.3549C238.641 68.2249 237.516 69.3949 236.676 70.8649C235.866 72.3349 235.461 73.9249 235.461 75.6349C235.461 77.3449 235.866 78.9349 236.676 80.4049C237.516 81.8449 238.641 82.9999 240.051 83.8699C241.491 84.7399 243.081 85.1749 244.821 85.1749Z" fill="#284D28"/>
<path d="M259.493 65.4649H260.933V69.9649C261.593 68.4649 262.718 67.2649 264.308 66.3649C265.898 65.4349 267.653 64.9699 269.573 64.9699C272.063 64.9699 274.028 65.7649 275.468 67.3549C276.938 68.9149 277.673 71.1049 277.673 73.9249V85.7149H276.233V73.9249C276.233 71.4949 275.633 69.6049 274.433 68.2549C273.263 66.9049 271.613 66.2299 269.483 66.2299C267.923 66.2299 266.483 66.5899 265.163 67.3099C263.873 67.9999 262.838 68.9599 262.058 70.1899C261.308 71.4199 260.933 72.8149 260.933 74.3749V85.7149H259.493V65.4649Z" fill="#284D28"/>
<path d="M81.0801 43.4C80.2134 43.4 79.4401 43.22 78.7601 42.86C78.0801 42.4867 77.5467 41.96 77.1601 41.28C76.7734 40.6 76.5801 39.8067 76.5801 38.9V28H77.2401V38.88C77.2401 39.68 77.4067 40.38 77.7401 40.98C78.0734 41.5667 78.5267 42.02 79.1001 42.34C79.6867 42.66 80.3401 42.82 81.0601 42.82C81.7801 42.82 82.4267 42.6667 83.0001 42.36C83.5867 42.04 84.0401 41.5867 84.3601 41C84.6934 40.4 84.8601 39.6933 84.8601 38.88V28H85.5201V38.86C85.5201 39.78 85.3334 40.5867 84.9601 41.28C84.5867 41.96 84.0601 42.4867 83.3801 42.86C82.7134 43.22 81.9467 43.4 81.0801 43.4Z" fill="#284D28"/>
<path d="M88.3695 34H89.0095V36C89.3028 35.3333 89.8028 34.8 90.5095 34.4C91.2161 33.9867 91.9961 33.78 92.8495 33.78C93.9561 33.78 94.8295 34.1333 95.4695 34.84C96.1228 35.5333 96.4495 36.5067 96.4495 37.76V43H95.8095V37.76C95.8095 36.68 95.5428 35.84 95.0095 35.24C94.4895 34.64 93.7561 34.34 92.8095 34.34C92.1161 34.34 91.4761 34.5 90.8895 34.82C90.3161 35.1267 89.8561 35.5533 89.5095 36.1C89.1761 36.6467 89.0095 37.2667 89.0095 37.96V43H88.3695V34Z" fill="#284D28"/>
<path d="M99.7549 31.94C99.5683 31.94 99.4016 31.8733 99.2549 31.74C99.1216 31.6067 99.0549 31.44 99.0549 31.24C99.0549 31.0533 99.1216 30.8933 99.2549 30.76C99.4016 30.6267 99.5683 30.56 99.7549 30.56C99.9416 30.56 100.102 30.6267 100.235 30.76C100.382 30.8933 100.455 31.0533 100.455 31.24C100.455 31.44 100.382 31.6067 100.235 31.74C100.102 31.8733 99.9416 31.94 99.7549 31.94ZM99.4349 34H100.075V43H99.4349V34Z" fill="#284D28"/>
<path d="M106.477 30.8C105.97 30.8 105.504 30.9267 105.077 31.18C104.65 31.42 104.31 31.76 104.057 32.2C103.817 32.6267 103.697 33.1 103.697 33.62V34H106.477V34.56H103.697V43H103.057V33.62C103.057 32.9933 103.204 32.4267 103.497 31.92C103.804 31.4 104.217 30.9933 104.737 30.7C105.27 30.3933 105.85 30.24 106.477 30.24V30.8Z" fill="#284D28"/>
<path d="M112.454 43.32C111.547 43.32 110.727 43.1 109.994 42.66C109.261 42.2067 108.687 41.6133 108.274 40.88C107.861 40.1333 107.654 39.3267 107.654 38.46C107.654 37.6067 107.861 36.8133 108.274 36.08C108.701 35.3467 109.274 34.7667 109.994 34.34C110.727 33.9 111.541 33.68 112.434 33.68C113.314 33.68 114.114 33.9 114.834 34.34C115.567 34.7667 116.141 35.3467 116.554 36.08C116.967 36.8133 117.174 37.6067 117.174 38.46C117.174 39.3533 116.974 40.1733 116.574 40.92C116.174 41.6533 115.614 42.24 114.894 42.68C114.187 43.1067 113.374 43.32 112.454 43.32ZM112.454 42.76C113.214 42.76 113.907 42.5667 114.534 42.18C115.161 41.7933 115.647 41.28 115.994 40.64C116.354 39.9867 116.534 39.2733 116.534 38.5C116.534 37.74 116.354 37.0333 115.994 36.38C115.634 35.7267 115.141 35.2067 114.514 34.82C113.887 34.4333 113.194 34.24 112.434 34.24C111.674 34.24 110.974 34.44 110.334 34.84C109.707 35.2267 109.207 35.7467 108.834 36.4C108.474 37.0533 108.294 37.76 108.294 38.52C108.294 39.28 108.474 39.9867 108.834 40.64C109.207 41.28 109.707 41.7933 110.334 42.18C110.974 42.5667 111.681 42.76 112.454 42.76Z" fill="#284D28"/>
<path d="M118.975 34H119.615V36.08C119.882 35.4267 120.268 34.9133 120.775 34.54C121.295 34.1667 121.882 33.98 122.535 33.98C122.948 33.98 123.368 34.0667 123.795 34.24V34.98C123.408 34.6867 122.975 34.54 122.495 34.54C122.015 34.54 121.548 34.6867 121.095 34.98C120.655 35.2733 120.295 35.6667 120.015 36.16C119.748 36.6533 119.615 37.18 119.615 37.74V43H118.975V34Z" fill="#284D28"/>
<path d="M125.381 34H126.021V35.36C126.635 34.3067 127.621 33.78 128.981 33.78C129.635 33.78 130.201 33.9667 130.681 34.34C131.161 34.7 131.495 35.2467 131.681 35.98C131.855 35.3267 132.235 34.8 132.821 34.4C133.421 33.9867 134.095 33.78 134.841 33.78C135.815 33.78 136.568 34.0667 137.101 34.64C137.635 35.2 137.901 36 137.901 37.04V43H137.261V37.04C137.261 36.2 137.041 35.54 136.601 35.06C136.175 34.58 135.608 34.34 134.901 34.34C134.368 34.34 133.875 34.4733 133.421 34.74C132.968 34.9933 132.608 35.34 132.341 35.78C132.075 36.22 131.941 36.7067 131.941 37.24V43H131.301V37.4C131.301 36.44 131.075 35.6933 130.621 35.16C130.168 34.6133 129.581 34.34 128.861 34.34C128.381 34.34 127.921 34.46 127.481 34.7C127.055 34.94 126.701 35.2667 126.421 35.68C126.155 36.08 126.021 36.52 126.021 37V43H125.381V34Z" fill="#284D28"/>
<path d="M166.482 43.4001C165.082 43.4001 163.795 43.0601 162.622 42.3801C161.448 41.6868 160.515 40.7401 159.822 39.5401C159.142 38.3268 158.802 36.9668 158.802 35.4601C158.802 34.0068 159.155 32.6801 159.862 31.4801C160.582 30.2801 161.535 29.3334 162.722 28.6401C163.922 27.9468 165.195 27.6001 166.542 27.6001C167.475 27.6001 168.215 27.6868 168.762 27.8601C169.308 28.0201 169.942 28.3068 170.662 28.7201V29.4601C169.982 28.9934 169.348 28.6668 168.762 28.4801C168.188 28.2801 167.468 28.1801 166.602 28.1801C165.282 28.1801 164.075 28.5201 162.982 29.2001C161.902 29.8668 161.042 30.7668 160.402 31.9001C159.775 33.0201 159.462 34.2268 159.462 35.5201C159.462 36.8268 159.782 38.0401 160.422 39.1601C161.062 40.2801 161.908 41.1734 162.962 41.8401C164.028 42.4934 165.175 42.8201 166.402 42.8201C167.282 42.8201 168.048 42.7201 168.702 42.5201C169.355 42.3068 170.008 41.9801 170.662 41.5401V42.2801C170.022 42.6668 169.362 42.9468 168.682 43.1201C168.015 43.3068 167.282 43.4001 166.482 43.4001Z" fill="#284D28"/>
<path d="M180.664 43.4001C179.264 43.4001 177.964 43.0334 176.764 42.3001C175.564 41.5668 174.611 40.5934 173.904 39.3801C173.211 38.1534 172.864 36.8401 172.864 35.4401C172.864 34.0534 173.218 32.7601 173.924 31.5601C174.631 30.3468 175.584 29.3868 176.784 28.6801C177.984 27.9601 179.284 27.6001 180.684 27.6001C182.098 27.6001 183.398 27.9534 184.584 28.6601C185.771 29.3668 186.711 30.3268 187.404 31.5401C188.111 32.7401 188.464 34.0401 188.464 35.4401C188.464 36.8801 188.111 38.2134 187.404 39.4401C186.711 40.6534 185.764 41.6201 184.564 42.3401C183.378 43.0468 182.078 43.4001 180.664 43.4001ZM180.664 42.8201C181.944 42.8201 183.131 42.4934 184.224 41.8401C185.318 41.1734 186.184 40.2801 186.824 39.1601C187.478 38.0268 187.804 36.8001 187.804 35.4801C187.804 34.1734 187.484 32.9601 186.844 31.8401C186.204 30.7201 185.338 29.8334 184.244 29.1801C183.151 28.5134 181.964 28.1801 180.684 28.1801C179.391 28.1801 178.198 28.5134 177.104 29.1801C176.011 29.8334 175.138 30.7201 174.484 31.8401C173.844 32.9601 173.524 34.1734 173.524 35.4801C173.524 36.8001 173.844 38.0268 174.484 39.1601C175.138 40.2801 176.011 41.1734 177.104 41.8401C178.198 42.4934 179.384 42.8201 180.664 42.8201Z" fill="#284D28"/>
<path d="M197.105 38.5801C198.278 37.8468 199.138 37.0734 199.685 36.2601C200.245 35.4334 200.525 34.4801 200.525 33.4001C200.525 32.4934 200.325 31.6601 199.925 30.9001C199.525 30.1401 198.958 29.5334 198.225 29.0801C197.505 28.6268 196.678 28.4001 195.745 28.4001C194.798 28.4001 193.931 28.6401 193.145 29.1201C192.371 29.6001 191.758 30.2468 191.305 31.0601C190.851 31.8734 190.625 32.7734 190.625 33.7601H189.965C189.965 32.6534 190.218 31.6468 190.725 30.7401C191.231 29.8334 191.925 29.1201 192.805 28.6001C193.685 28.0801 194.665 27.8201 195.745 27.8201C196.798 27.8201 197.738 28.0734 198.565 28.5801C199.391 29.0868 200.031 29.7668 200.485 30.6201C200.951 31.4734 201.185 32.4068 201.185 33.4201C201.185 35.5934 200.005 37.4334 197.645 38.9401L192.205 42.4201H201.125V43.0001H190.125L197.105 38.5801Z" fill="#284D28"/>
<path d="M232.742 43.4001C231.342 43.4001 230.055 43.0601 228.882 42.3801C227.708 41.6868 226.775 40.7401 226.082 39.5401C225.402 38.3268 225.062 36.9668 225.062 35.4601C225.062 34.0068 225.415 32.6801 226.122 31.4801C226.842 30.2801 227.795 29.3334 228.982 28.6401C230.182 27.9468 231.455 27.6001 232.802 27.6001C233.735 27.6001 234.475 27.6868 235.022 27.8601C235.568 28.0201 236.202 28.3068 236.922 28.7201V29.4601C236.242 28.9934 235.608 28.6668 235.022 28.4801C234.448 28.2801 233.728 28.1801 232.862 28.1801C231.542 28.1801 230.335 28.5201 229.242 29.2001C228.162 29.8668 227.302 30.7668 226.662 31.9001C226.035 33.0201 225.722 34.2268 225.722 35.5201C225.722 36.8268 226.042 38.0401 226.682 39.1601C227.322 40.2801 228.168 41.1734 229.222 41.8401C230.288 42.4934 231.435 42.8201 232.662 42.8201C233.542 42.8201 234.308 42.7201 234.962 42.5201C235.615 42.3068 236.268 41.9801 236.922 41.5401V42.2801C236.282 42.6668 235.622 42.9468 234.942 43.1201C234.275 43.3068 233.542 43.4001 232.742 43.4001Z" fill="#284D28"/>
<path d="M243.333 43.3201C242.427 43.3201 241.607 43.1001 240.873 42.6601C240.14 42.2068 239.567 41.6134 239.153 40.8801C238.74 40.1334 238.533 39.3268 238.533 38.4601C238.533 37.6068 238.74 36.8134 239.153 36.0801C239.58 35.3468 240.153 34.7668 240.873 34.3401C241.607 33.9001 242.42 33.6801 243.313 33.6801C244.193 33.6801 244.993 33.9001 245.713 34.3401C246.447 34.7668 247.02 35.3468 247.433 36.0801C247.847 36.8134 248.053 37.6068 248.053 38.4601C248.053 39.3534 247.853 40.1734 247.453 40.9201C247.053 41.6534 246.493 42.2401 245.773 42.6801C245.067 43.1068 244.253 43.3201 243.333 43.3201ZM243.333 42.7601C244.093 42.7601 244.787 42.5668 245.413 42.1801C246.04 41.7934 246.527 41.2801 246.873 40.6401C247.233 39.9868 247.413 39.2734 247.413 38.5001C247.413 37.7401 247.233 37.0334 246.873 36.3801C246.513 35.7268 246.02 35.2068 245.393 34.8201C244.767 34.4334 244.073 34.2401 243.313 34.2401C242.553 34.2401 241.853 34.4401 241.213 34.8401C240.587 35.2268 240.087 35.7468 239.713 36.4001C239.353 37.0534 239.173 37.7601 239.173 38.5201C239.173 39.2801 239.353 39.9868 239.713 40.6401C240.087 41.2801 240.587 41.7934 241.213 42.1801C241.853 42.5668 242.56 42.7601 243.333 42.7601Z" fill="#284D28"/>
<path d="M253.269 43.1201C252.283 43.1201 251.463 42.8201 250.809 42.2201C250.169 41.6201 249.849 40.7934 249.849 39.7401V30.3801H250.489V34.0001H253.249V34.5601H250.489V39.7401C250.489 40.6201 250.749 41.3134 251.269 41.8201C251.803 42.3134 252.469 42.5601 253.269 42.5601V43.1201Z" fill="#284D28"/>
<path d="M258.172 43.1201C257.185 43.1201 256.365 42.8201 255.712 42.2201C255.072 41.6201 254.752 40.7934 254.752 39.7401V30.3801H255.392V34.0001H258.152V34.5601H255.392V39.7401C255.392 40.6201 255.652 41.3134 256.172 41.8201C256.705 42.3134 257.372 42.5601 258.172 42.5601V43.1201Z" fill="#284D28"/>
<path d="M264.134 43.3201C263.228 43.3201 262.408 43.1001 261.674 42.6601C260.941 42.2068 260.368 41.6134 259.954 40.8801C259.541 40.1334 259.334 39.3268 259.334 38.4601C259.334 37.6068 259.541 36.8134 259.954 36.0801C260.381 35.3468 260.954 34.7668 261.674 34.3401C262.408 33.9001 263.221 33.6801 264.114 33.6801C264.994 33.6801 265.794 33.9001 266.514 34.3401C267.248 34.7668 267.821 35.3468 268.234 36.0801C268.648 36.8134 268.854 37.6068 268.854 38.4601C268.854 39.3534 268.654 40.1734 268.254 40.9201C267.854 41.6534 267.294 42.2401 266.574 42.6801C265.868 43.1068 265.054 43.3201 264.134 43.3201ZM264.134 42.7601C264.894 42.7601 265.588 42.5668 266.214 42.1801C266.841 41.7934 267.328 41.2801 267.674 40.6401C268.034 39.9868 268.214 39.2734 268.214 38.5001C268.214 37.7401 268.034 37.0334 267.674 36.3801C267.314 35.7268 266.821 35.2068 266.194 34.8201C265.568 34.4334 264.874 34.2401 264.114 34.2401C263.354 34.2401 262.654 34.4401 262.014 34.8401C261.388 35.2268 260.888 35.7468 260.514 36.4001C260.154 37.0534 259.974 37.7601 259.974 38.5201C259.974 39.2801 260.154 39.9868 260.514 40.6401C260.888 41.2801 261.388 41.7934 262.014 42.1801C262.654 42.5668 263.361 42.7601 264.134 42.7601Z" fill="#284D28"/>
<path d="M270.655 34.0001H271.295V36.0001C271.588 35.3334 272.088 34.8001 272.795 34.4001C273.502 33.9868 274.282 33.7801 275.135 33.7801C276.242 33.7801 277.115 34.1334 277.755 34.8401C278.408 35.5334 278.735 36.5068 278.735 37.7601V43.0001H278.095V37.7601C278.095 36.6801 277.828 35.8401 277.295 35.2401C276.775 34.6401 276.042 34.3401 275.095 34.3401C274.402 34.3401 273.762 34.5001 273.175 34.8201C272.602 35.1268 272.142 35.5534 271.795 36.1001C271.462 36.6468 271.295 37.2668 271.295 37.9601V43.0001H270.655V34.0001Z" fill="#284D28"/>
<path fill-rule="evenodd" clip-rule="evenodd" d="M141.812 35.8356C141.901 35.7305 142.058 35.7189 142.162 35.8097L150.162 42.7941C150.266 42.8849 150.278 43.0437 150.188 43.1488C150.099 43.254 149.942 43.2656 149.838 43.1748L141.838 36.1904C141.734 36.0996 141.722 35.9408 141.812 35.8356Z" fill="#284D28"/>
<path fill-rule="evenodd" clip-rule="evenodd" d="M141.811 43.0912C141.722 42.9857 141.734 42.8269 141.838 42.7365L149.838 35.8096C149.943 35.7192 150.1 35.7314 150.189 35.8369C150.278 35.9424 150.265 36.1012 150.161 36.1916L142.161 43.1186C142.057 43.2089 141.9 43.1967 141.811 43.0912Z" fill="#284D28"/>
<path fill-rule="evenodd" clip-rule="evenodd" d="M145.812 35.8513C145.901 35.7461 146.058 35.7345 146.162 35.8253L154.162 42.8097C154.266 42.9005 154.278 43.0593 154.188 43.1645C154.099 43.2696 153.942 43.2812 153.838 43.1904L145.838 36.206C145.734 36.1152 145.722 35.9564 145.812 35.8513Z" fill="#284D28"/>
<path fill-rule="evenodd" clip-rule="evenodd" d="M145.811 43.1068C145.722 43.0013 145.734 42.8425 145.838 42.7521L153.838 35.8252C153.943 35.7348 154.1 35.7471 154.189 35.8526C154.278 35.9581 154.265 36.1169 154.161 36.2072L146.161 43.1342C146.057 43.2246 145.9 43.2123 145.811 43.1068Z" fill="#284D28"/>
<path fill-rule="evenodd" clip-rule="evenodd" d="M206.812 35.8356C206.901 35.7305 207.058 35.7189 207.162 35.8097L215.162 42.7941C215.266 42.8849 215.278 43.0437 215.188 43.1488C215.099 43.254 214.942 43.2656 214.838 43.1748L206.838 36.1904C206.734 36.0996 206.722 35.9408 206.812 35.8356Z" fill="#284D28"/>
<path fill-rule="evenodd" clip-rule="evenodd" d="M206.811 43.0912C206.722 42.9857 206.734 42.8269 206.838 42.7365L214.838 35.8096C214.943 35.7192 215.1 35.7314 215.189 35.8369C215.278 35.9424 215.265 36.1012 215.161 36.1916L207.161 43.1186C207.057 43.2089 206.9 43.1967 206.811 43.0912Z" fill="#284D28"/>
<path fill-rule="evenodd" clip-rule="evenodd" d="M210.812 35.8513C210.901 35.7461 211.058 35.7345 211.162 35.8253L219.162 42.8097C219.266 42.9005 219.278 43.0593 219.188 43.1645C219.099 43.2696 218.942 43.2812 218.838 43.1904L210.838 36.206C210.734 36.1152 210.722 35.9564 210.812 35.8513Z" fill="#284D28"/>
<path fill-rule="evenodd" clip-rule="evenodd" d="M210.811 43.1068C210.722 43.0013 210.734 42.8425 210.838 42.7521L218.838 35.8252C218.943 35.7348 219.1 35.7471 219.189 35.8526C219.278 35.9581 219.265 36.1169 219.161 36.2072L211.161 43.1342C211.057 43.2246 210.9 43.2123 210.811 43.1068Z" fill="#284D28"/>
<path fill-rule="evenodd" clip-rule="evenodd" d="M71.9607 18.9349C71.4309 20.0099 71.439 19.8323 71.4827 18.8758C71.601 16.2854 71.9802 7.98265 62.6425 3.37875C53.7937 -0.982962 47.3682 4.02591 45.1608 5.74663L45.1528 5.7529C48.0763 7.26377 50.2794 9.20559 51.2654 11.2027C52.0797 12.8522 51.871 12.6764 50.7472 11.7295C47.703 9.16465 37.9433 0.941699 23.6091 8.01349C10.0272 14.7161 10.122 27.2237 10.1546 31.5219C10.1675 33.2213 10.1706 33.6374 9.31493 31.9041C6.29491 25.7866 10.6371 10.9188 22.221 5.20284C29.7969 1.46461 38.5945 2.56568 44.6203 5.48635L44.6314 5.4638C46.596 1.47725 56.0002 -2.17086 63.546 1.54895C70.613 5.0328 73.5468 13.7467 72.2767 18.1109C72.4817 18.0407 73.0629 18.0963 74.1152 18.2638C75.6385 18.5063 77.2656 19.1235 78.9165 20.0598C78.2257 20.5713 77.5468 21.0981 76.8806 21.6398C75.7103 20.7643 74.6719 20.0648 73.8716 19.5258C72.9637 18.9142 72.3623 18.5091 72.2222 18.2874C72.1474 18.5168 72.0602 18.7332 71.9607 18.9349ZM56.9115 75.6627C56.6102 75.8989 56.3101 76.1422 56.0115 76.3927C53.2811 78.6842 51.2162 81.2425 49.6818 83.6115C50.6741 80.6431 51.4628 77.0724 51.4628 73.2322C51.4628 65.7868 48.4973 59.3596 46.8453 56.3567C46.3635 55.482 45.1188 55.4562 44.5997 56.308C42.7756 59.2907 39.4573 65.7466 39.4573 73.2322C39.4573 77.7923 40.6906 81.971 42.0643 85.2147C40.3091 82.7425 37.9115 79.9032 34.7796 77.2761C28.7051 72.1796 21.6469 69.3689 18.7015 68.3393C18.0333 68.107 17.3535 68.6519 17.4424 69.3517C17.6712 71.1563 18.2421 74.3979 19.6199 77.8295C15.2546 76.6986 7.60505 73.3197 4.23841 61.3243C0.238872 47.0737 6.72569 38.7721 9.31274 35.4613C10.551 33.8766 10.8959 33.4353 8.76987 34.0322L8.767 34.0293C2.19925 35.8735 -2.27199 49.7317 1.21839 62.1703C4.51102 73.9042 13.7147 80.1814 20.2605 79.3068C21.5151 81.9907 23.295 84.6817 25.817 86.7979C32.0406 92.0205 40.9229 92.184 44.4247 92.0148C44.5853 95.6055 44.5394 98.8579 44.1092 101.479C43.9716 102.325 44.6197 103.091 45.4773 103.091H46.4725C47.3071 103.091 47.9581 102.36 47.8491 101.534C47.439 98.3961 47.3501 94.966 47.4878 91.3351C47.8979 91.6678 48.4342 91.8542 49.0308 91.7911C51.8995 91.4919 56.2742 90.5554 60.5602 87.7744C58.9127 83.9377 57.6778 79.8818 56.9115 75.6627ZM56.5187 42.1066C57.5478 43.511 58.2179 44.4255 58.4529 44.1964V44.1935C59.1928 43.4707 58.2493 39.1228 51.4521 34.164C50.8886 33.7531 50.302 33.3294 49.6968 32.9023C49.821 32.6396 49.9623 32.3132 50.1226 31.9426C51.0285 29.8483 52.5443 26.3444 55.0567 24.9692C57.4956 23.6332 59.977 22.7078 61.8254 22.0185L61.8254 22.0185L61.8255 22.0184L61.8255 22.0184C64.1395 21.1555 65.4615 20.6624 64.4666 20.1969C60.0699 18.1434 55.4697 22.5142 52.2747 25.8239C49.681 28.5096 48.8884 30.897 48.842 32.306C43.44 28.5839 36.7863 24.9306 31.8234 27.4758C30.511 28.1503 32.6031 28.7211 36.2645 29.72C39.1885 30.5178 43.1133 31.5885 47.1042 33.2032C51.214 34.8672 54.534 39.3981 56.5187 42.1066Z" fill="#284D28"/>
</svg>
